<svg width="102" height="100" viewBox="0 0 102 100" fill="none" xmlns="http://www.w3.org/2000/svg">
<path opacity="0.99" d="M18.505 45.8584C-13.6134 11.9813 53.7457 -13.7757 78.3395 8.09662C53.523 11.6307 36.2255 29.9523 18.505 45.8584Z" fill="#151D3F"/>
<path opacity="0.99" d="M82.9483 54.0729C114.343 87.3824 48.381 113.863 24.0098 92.0407C48.381 88.1337 65.4003 69.7565 82.9483 54.0729Z" fill="#151D3F"/>
<path opacity="0.99" d="M52.2094 74.5152C39.8652 83.1696 19.4231 94.6178 8.64279 78.194C-0.835235 64.3916 -2.90003 45.4801 4.35736 30.2585C13.2677 52.6429 28.545 67.8533 52.2094 74.5152Z" fill="#151D3F"/>
<path opacity="0.99" d="M96.8175 70.1739C95.4206 54.5238 66.2908 26.1453 50.3457 25.5331C62.6287 15.7212 84.1616 5.90367 94.2796 23.6353C102.556 37.4544 104.225 55.6702 96.8175 70.1739Z" fill="#151D3F"/>
<path fill-rule="evenodd" clip-rule="evenodd" d="M59.4374 45.696C59.3518 45.5347 59.1354 45.5058 58.9963 45.624C58.1711 46.3257 57.1019 46.749 55.9338 46.749C53.3211 46.749 51.2031 44.631 51.2031 42.0184C51.2031 41.492 51.2891 40.9857 51.4478 40.5128C51.5059 40.3394 51.3984 40.149 51.2165 40.1297C50.8464 40.0905 50.4706 40.0704 50.09 40.0704C44.25 40.0704 39.5156 44.8047 39.5156 50.6448C39.5156 56.4849 44.25 61.2192 50.09 61.2192C55.9301 61.2192 60.6645 56.4849 60.6645 50.6448C60.6645 48.8569 60.2207 47.1726 59.4374 45.696Z" fill="#151D3F"/>
</svg>
